<?xml version="1.0" encoding="UTF-8"?>
<!DOCTYPE svg PUBLIC "-//W3C//DTD SVG 1.1//EN" "http://www.w3.org/Graphics/SVG/1.1/DTD/svg11.dtd">
<!-- Creator: CorelDRAW X8 -->
<svg xmlns="http://www.w3.org/2000/svg" xml:space="preserve" width="0.356661in" height="0.339992in" version="1.1" style="shape-rendering:geometricPrecision; text-rendering:geometricPrecision; image-rendering:optimizeQuality; fill-rule:evenodd; clip-rule:evenodd"
viewBox="0 0 357 340"
 xmlns:xlink="http://www.w3.org/1999/xlink">
 <defs>
  <style type="text/css">
   <![CDATA[
    .fil1 {fill:#2B5083}
    .fil2 {fill:#A8D3F0}
    .fil0 {fill:#E9EBED}
   ]]>
  </style>
 </defs>
 <g id="Layer_x0020_1">
  <metadata id="CorelCorpID_0Corel-Layer"/>
  <g id="_1550313345216">
   <path class="fil0" d="M178 85c55,0 100,45 100,100 0,55 -45,99 -100,99l0 -199z"/>
   <path class="fil1" d="M187 8l0 93 32 0 25 -29c-2,-4 -4,-9 -4,-14 0,-15 13,-27 28,-27 15,0 28,12 28,27 0,16 -13,28 -28,28 -4,0 -8,-1 -11,-2l-30 34 -40 0 0 15 11 0 0 17 -11 0 0 18 23 0 0 17 -23 0 0 19 9 0 0 17 -9 0 0 0 0 16 13 0 0 17 -13 0 0 86 -13 0 -1 -26c0,1 -1,1 -1,1 -1,1 -1,1 -2,1 -31,24 -66,24 -91,-5 -5,-6 -4,-8 -11,-11 -12,-4 -47,-7 -54,-56 -3,-24 4,-12 -6,-34 -15,-33 -8,-76 19,-98 13,-11 3,-41 30,-60 7,-6 25,-10 29,-15 8,-12 8,-16 22,-24 28,-15 47,-2 65,10l0 -23 14 0 0 8zm44 142l-18 0 0 -17 18 0 0 17zm11 35l-18 0 0 -17 18 0 0 17zm-15 36l-19 0 0 -17 19 0 0 17zm11 -17l22 0 25 36 11 0c4,-10 14,-17 25,-17 16,0 28,12 28,27 0,16 -12,28 -28,28 -13,0 -23,-9 -26,-21l-18 0 -26 -36 -13 0 0 -17zm7 89l-27 -39 -3 0 0 -3 0 0 0 0 0 -14 11 0 33 46c2,-1 5,-1 9,-1 15,0 27,12 27,27 0,16 -12,28 -27,28 -16,0 -28,-12 -28,-28 0,-6 2,-11 5,-16zm58 -108l-45 0 0 -17 45 0c3,-11 14,-19 26,-19 15,0 28,12 28,27 0,16 -13,28 -28,28 -12,0 -23,-8 -26,-19zm-7 -74l-8 0 -27 39 -16 0 0 -17 7 0 27 -39 16 0c3,-11 14,-20 27,-20 15,0 28,12 28,28 0,15 -13,27 -28,27 -12,0 -22,-7 -26,-18zm-21 -60c-2,-2 -4,-3 -7,-3 -3,0 -6,1 -8,3 -2,2 -3,4 -3,7 0,3 1,6 3,8 2,2 5,3 8,3 3,0 5,-1 7,-3 2,-2 3,-5 3,-8 0,-3 -1,-5 -3,-7zm62 118c-2,-2 -5,-3 -8,-3 -3,0 -6,1 -8,3 -1,2 -3,5 -3,7 0,3 2,6 3,8 2,2 5,3 8,3 3,0 6,-1 8,-3 1,-2 3,-5 3,-8 0,-2 -2,-5 -3,-7zm-8 74c-2,-2 -5,-3 -8,-3 -3,0 -5,1 -7,3 -2,2 -3,5 -3,7 0,3 1,6 3,8 2,2 4,3 7,3 3,0 6,-1 8,-3 2,-2 3,-5 3,-8 0,-2 -1,-5 -3,-7zm-54 59c-2,-2 -5,-3 -7,-3 -3,0 -6,1 -8,3 -2,2 -3,4 -3,7 0,3 1,6 3,8 2,2 5,3 8,3 2,0 5,-1 7,-3 2,-2 3,-5 3,-8 0,-3 -1,-5 -3,-7zm54 -208c-1,-2 -4,-3 -7,-3 -3,0 -6,1 -8,3 -1,2 -3,5 -3,8 0,2 2,5 3,7 2,2 5,3 8,3 3,0 6,-1 7,-3 2,-2 4,-5 4,-7 0,-3 -2,-6 -4,-8zm-201 -39c3,15 17,27 30,30 20,6 15,-10 15,55 -54,-27 -59,37 -94,26 -10,-11 -5,-24 -32,-26l-1 11c1,0 1,0 2,1 0,1 1,1 1,1 1,0 3,1 3,2 15,8 15,22 1,30l-3 1c-3,3 -1,1 -4,3l1 11c16,-1 24,-8 27,-20 49,7 46,-34 77,-33 20,1 22,14 22,34 -1,88 6,45 -27,67 -8,4 -15,11 -18,22l11 6c11,-12 8,-21 34,-22 1,25 0,45 -16,56 -43,29 -92,-13 -72,-51 14,-28 42,-23 47,-27 5,-5 -7,-14 17,-30l4 -14c-26,-1 -28,28 -38,33 -2,0 -4,1 -5,2 -5,1 -6,1 -11,4 -8,4 -12,8 -18,12 -13,-3 -19,-7 -21,-20l-11 1c-5,13 10,27 24,31 -3,11 -7,21 -6,35 -28,-5 -41,-30 -40,-56 1,-17 -1,-12 -7,-25 -16,-36 -1,-79 28,-90 -1,-22 4,-56 32,-59 0,17 3,20 8,33l-7 6c-8,6 -12,11 -14,24l12 2c7,-12 4,-14 19,-20 9,5 22,15 35,11l1 -12c-76,-9 -31,-108 22,-73 14,10 18,24 17,47 -25,-2 -23,-11 -34,-23l-11 4z"/>
   <path class="fil2" d="M48 115c-29,11 -44,54 -28,90 6,13 8,8 7,25 -1,26 12,51 40,56 -1,-14 3,-24 6,-35 -14,-4 -29,-18 -24,-31l11 -1c2,13 8,17 21,20 6,-4 10,-8 18,-12 5,-3 6,-3 11,-4 1,-1 3,-2 5,-2 10,-5 12,-34 38,-33l-4 14c-24,16 -12,25 -17,30 -5,4 -33,-1 -47,27 -20,38 29,80 72,51 16,-11 17,-31 16,-56 -26,1 -23,10 -34,22l-11 -6c3,-11 10,-18 18,-22 33,-22 26,21 27,-67 0,-20 -2,-33 -22,-34 -31,-1 -28,40 -77,33 -3,12 -11,19 -27,20l-1 -11c3,-2 1,0 4,-3l3 -1c14,-8 14,-22 -1,-30l-3 -2c0,0 -1,0 -1,-1 -1,-1 -1,-1 -2,-1l1 -11c27,2 22,15 32,26 35,11 40,-53 94,-26 0,-65 5,-49 -15,-55 -13,-3 -27,-15 -30,-30l11 -4c11,12 9,21 34,23 1,-23 -3,-37 -17,-47 -53,-35 -98,64 -22,73l-1 12c-13,4 -26,-6 -35,-11 -15,6 -12,8 -19,20l-12 -2c2,-13 6,-18 14,-24l7 -6c-5,-13 -8,-16 -8,-33 -28,3 -33,37 -32,59z"/>
   <path class="fil2" d="M260 51c-2,2 -3,4 -3,7 0,3 1,6 3,8 2,2 5,3 8,3 3,0 5,-1 7,-3 2,-2 3,-5 3,-8 0,-3 -1,-5 -3,-7 -2,-2 -4,-3 -7,-3 -3,0 -6,1 -8,3z"/>
   <path class="fil2" d="M314 94c-1,2 -3,5 -3,8 0,2 2,5 3,7 2,2 5,3 8,3 3,0 6,-1 7,-3 2,-2 4,-5 4,-7 0,-3 -2,-6 -4,-8 -1,-2 -4,-3 -7,-3 -3,0 -6,1 -8,3z"/>
   <path class="fil2" d="M329 166c-3,0 -6,1 -8,3 -1,2 -3,5 -3,7 0,3 2,6 3,8 2,2 5,3 8,3 3,0 6,-1 8,-3 1,-2 3,-5 3,-8 0,-2 -2,-5 -3,-7 -2,-2 -5,-3 -8,-3z"/>
   <path class="fil2" d="M329 243c-2,-2 -5,-3 -8,-3 -3,0 -5,1 -7,3 -2,2 -3,5 -3,7 0,3 1,6 3,8 2,2 4,3 7,3 3,0 6,-1 8,-3 2,-2 3,-5 3,-8 0,-2 -1,-5 -3,-7z"/>
   <path class="fil2" d="M278 309c0,-3 -1,-5 -3,-7 -2,-2 -5,-3 -7,-3 -3,0 -6,1 -8,3 -2,2 -3,4 -3,7 0,3 1,6 3,8 2,2 5,3 8,3 2,0 5,-1 7,-3 2,-2 3,-5 3,-8z"/>
  </g>
 </g>
</svg>
